<svg xmlns="http://www.w3.org/2000/svg" width="34" height="34" fill="none" viewBox="0 0 34 34"><path fill="#000" d="M29.033 4.943a16.8 16.8 0 0 0-5.485-3.67A16.8 16.8 0 0 0 17.064 0C7.742 0 .145 7.56.137 16.843c0 2.973.78 5.865 2.256 8.425L0 34l8.974-2.342a16.9 16.9 0 0 0 8.09 2.05h.009c9.324 0 16.919-7.56 16.927-16.85a16.7 16.7 0 0 0-1.29-6.452 16.8 16.8 0 0 0-3.678-5.463M17.064 30.857A14.14 14.14 0 0 1 9.9 28.902l-.512-.306-5.324 1.39 1.422-5.17-.333-.534a13.9 13.9 0 0 1-2.15-7.448c0-7.705 6.312-13.99 14.07-13.99a14.1 14.1 0 0 1 5.386 1.062 14 14 0 0 1 4.562 3.042 13.9 13.9 0 0 1 3.052 4.542 13.9 13.9 0 0 1 1.064 5.36c-.01 7.732-6.322 14.007-14.073 14.007m7.717-10.485c-.42-.21-2.498-1.228-2.889-1.372-.388-.138-.672-.21-.95.21-.283.419-1.094 1.373-1.338 1.647-.243.283-.495.314-.918.106-.42-.212-1.784-.654-3.398-2.093-1.26-1.116-2.103-2.497-2.354-2.915-.244-.421-.024-.646.187-.857.186-.187.42-.493.632-.735.214-.242.284-.42.423-.701.139-.285.072-.527-.032-.738-.107-.21-.95-2.286-1.306-3.123-.342-.827-.69-.712-.95-.723-.244-.015-.528-.015-.812-.015a1.56 1.56 0 0 0-1.13.525c-.387.42-1.474 1.439-1.474 3.515s1.516 4.071 1.73 4.354c.209.283 2.975 4.53 7.22 6.358 1.004.435 1.794.693 2.41.888 1.015.323 1.93.274 2.66.17.811-.123 2.5-1.02 2.856-2.004.35-.986.35-1.827.244-2.004-.105-.178-.389-.282-.811-.493"/></svg>