<svg xmlns="http://www.w3.org/2000/svg" width="34" height="34" fill="none" viewBox="0 0 34 34"><path fill="#000" d="M34 17A17 17 0 1 1 0 16.99994687072327 17 17 0 0 1 34 17m-16.39-4.45q-2.483 1.033-9.915 4.272-1.205.477-1.265.939c-.063.516.585.72 1.467.999l.371.116c.867.283 2.036.612 2.642.625q.828.021 1.844-.68 6.947-4.688 7.17-4.739c.106-.025.255-.055.353.034s.089.255.078.3c-.063.274-2.607 2.637-3.922 3.861-.41.383-.702.652-.761.714q-.196.201-.4.395c-.807.778-1.41 1.36.032 2.312.695.46 1.252.835 1.806 1.214.604.412 1.207.822 1.99 1.336q.298.195.573.398c.704.501 1.339.952 2.119.88.455-.043.924-.468 1.162-1.743.563-3.011 1.67-9.533 1.925-12.22a3 3 0 0 0-.028-.67.72.72 0 0 0-.242-.461 1.13 1.13 0 0 0-.659-.198c-.637.01-1.62.353-6.34 2.316"/></svg>