<svg xmlns="http://www.w3.org/2000/svg" width="30" height="30" fill="none" viewBox="0 0 30 30"><g clip-path="url(#clip0_4_28)"><path fill="#000" fill-rule="evenodd" d="M3.534.958a3.272 3.272 0 0 1 4.894.306l3.366 4.323a3.27 3.27 0 0 1 .59 2.801l-1.025 4.107a1.27 1.27 0 0 0 .334 1.206l4.606 4.607a1.28 1.28 0 0 0 1.208.334l4.104-1.026a3.28 3.28 0 0 1 2.801.59l4.324 3.364a3.27 3.27 0 0 1 .306 4.896l-1.939 1.938c-1.387 1.388-3.461 1.997-5.394 1.317a34.9 34.9 0 0 1-13.144-8.288A34.9 34.9 0 0 1 .277 8.291C-.4 6.36.209 4.284 1.597 2.897Z" clip-rule="evenodd"/></g><defs><clipPath id="clip0_4_28"><path fill="#fff" d="M0 0h30v30H0Z"/></clipPath></defs></svg>