<svg xmlns="http://www.w3.org/2000/svg" width="34" height="34" fill="none" viewBox="0 0 34 34"><g clip-path="url(#clip0_34_33)"><path fill="#000" d="M17 0c-4.613 0-5.194.021-7.006.102-1.813.085-3.047.37-4.129.79a8.3 8.3 0 0 0-3.011 1.961A8.3 8.3 0 0 0 .893 5.865C.472 6.945.185 8.182.102 9.989.022 11.804 0 12.382 0 17.002c0 4.616.021 5.194.102 7.006.085 1.81.37 3.045.79 4.127a8.35 8.35 0 0 0 1.961 3.011 8.3 8.3 0 0 0 3.009 1.961c1.085.421 2.317.708 4.128.791 1.814.08 2.392.102 7.01.102s5.194-.021 7.008-.102c1.809-.085 3.047-.37 4.13-.79a8.3 8.3 0 0 0 3.009-1.961 8.35 8.35 0 0 0 1.961-3.011c.418-1.083.705-2.317.79-4.128.08-1.812.102-2.39.102-7.008s-.021-5.196-.102-7.01c-.085-1.809-.372-3.046-.79-4.125a8.3 8.3 0 0 0-1.961-3.011A8.3 8.3 0 0 0 28.135.893C27.05.472 25.813.185 24.005.102 22.191.022 21.616 0 16.996 0Zm-1.524 3.064h1.526c4.54 0 5.077.015 6.868.098 1.658.074 2.559.353 3.158.584.793.309 1.36.678 1.955 1.273s.962 1.16 1.27 1.955c.234.597.51 1.498.585 3.156.083 1.791.1 2.329.1 6.866s-.017 5.076-.1 6.868c-.074 1.657-.353 2.556-.584 3.155a5.3 5.3 0 0 1-1.273 1.953 5.25 5.25 0 0 1-1.955 1.27c-.595.235-1.496.511-3.156.587-1.791.081-2.329.1-6.868.1s-5.079-.019-6.87-.1c-1.657-.076-2.556-.352-3.156-.586a5.3 5.3 0 0 1-1.955-1.27 5.3 5.3 0 0 1-1.275-1.955c-.231-.598-.51-1.499-.584-3.156-.08-1.792-.098-2.33-.098-6.87 0-4.542.017-5.075.098-6.866.077-1.658.353-2.559.587-3.158a5.3 5.3 0 0 1 1.273-1.955 5.25 5.25 0 0 1 1.955-1.27c.599-.235 1.498-.51 3.155-.587 1.568-.073 2.176-.094 5.344-.096Zm10.6 2.822A2.04 2.04 0 1 0 26.076 9.966 2.04 2.04 0 0 0 26.076 5.886m-9.074 2.385a8.731 8.731 0 1 0-.272 17.46 8.731 8.731 0 0 0 .272-17.46m0 3.062A5.667 5.667 0 1 1 17.002 22.668 5.667 5.667 0 0 1 17.002 11.332"/></g><defs><clipPath id="clip0_34_33"><path fill="#fff" d="M0 0h34v34H0Z"/></clipPath></defs></svg>