<svg xmlns="http://www.w3.org/2000/svg" width="24" height="24" fill="none" viewBox="0 0 24 24"><g fill="#000" clip-path="url(#clip0_4_57)"><path d="M16.5 9A4.5 4.5 0 1 1 7.5 9.000065237573203 4.5 4.5 0 0 1 16.5 9"/><path fill-rule="evenodd" d="M0 12A12 12 0 1 1 24 11.999993828867204 12 12 0 0 1 0 12M12 1.5a10.5 10.5 0 0 0-8.202 17.055C4.863 16.839 7.208 15 12 15s7.136 1.837 8.202 3.555A10.5 10.5 0 0 0 12 1.5" clip-rule="evenodd"/></g><defs><clipPath id="clip0_4_57"><path fill="#fff" d="M0 0h24v24H0Z"/></clipPath></defs></svg>