<svg xmlns="http://www.w3.org/2000/svg" width="15" height="15" fill="none" viewBox="0 0 15 15"><path fill="#fff" d="M0 .5A.5.5 0 0 1 .5 0H2a.5.5 0 0 1 .485.379L2.89 2H14.5a.5.5 0 0 1 .491.592l-1.5 8A.5.5 0 0 1 13 11H4a.5.5 0 0 1-.491-.408L2.01 2.607 1.61 1H.5A.5.5 0 0 1 0 .5M3.102 3l1.313 7h8.17l1.313-7ZM5 11A2 2 0 1 0 4.999943627834348 15 2 2 0 0 0 5 11m7 0A2 2 0 1 0 12.00003096087139 15 2 2 0 0 0 12 11m-7 1A1 1 0 1 1 4.999854370238213 14 1 1 0 0 1 5 12m7 0A1 1 0 1 1 11.99988247907638 14 1 1 0 0 1 12 12"/></svg>