<svg width="34" height="34" viewBox="0 0 34 34" fill="none" xmlns="http://www.w3.org/2000/svg">
<path d="M34 17C34 21.5087 32.2089 25.8327 29.0208 29.0208C25.8327 32.2089 21.5087 34 17 34C12.4913 34 8.1673 32.2089 4.97919 29.0208C1.79107 25.8327 0 21.5087 0 17C0 12.4913 1.79107 8.1673 4.97919 4.97919C8.1673 1.79107 12.4913 0 17 0C21.5087 0 25.8327 1.79107 29.0208 4.97919C32.2089 8.1673 34 12.4913 34 17ZM17.6099 12.5503C15.9552 13.2388 12.6501 14.6625 7.69462 16.8215C6.89138 17.1402 6.46992 17.4533 6.43025 17.7607C6.3665 18.2771 7.01463 18.4811 7.8965 18.7595L8.26838 18.8764C9.13538 19.159 10.3041 19.4884 10.9097 19.5011C11.4622 19.5153 12.0771 19.2886 12.7542 18.8211C17.3853 15.696 19.7753 14.1164 19.924 14.0824C20.0303 14.0569 20.179 14.0271 20.2767 14.1164C20.3745 14.2056 20.366 14.3714 20.3554 14.416C20.2916 14.6901 17.748 17.0531 16.4326 18.2771C16.0225 18.6596 15.7314 18.9295 15.6719 18.9911C15.5409 19.1251 15.4077 19.2568 15.2724 19.3864C14.4649 20.1641 13.8614 20.7464 15.3043 21.6984C15.9991 22.1574 16.5559 22.5335 17.1105 22.9117C17.714 23.324 18.3175 23.7341 19.0995 24.2484C19.2978 24.3787 19.4891 24.5112 19.6733 24.6457C20.3766 25.1472 21.012 25.5977 21.7919 25.5255C22.2466 25.483 22.7162 25.058 22.9543 23.783C23.5174 20.7719 24.6245 14.2502 24.8795 11.5621C24.8955 11.3387 24.8863 11.1141 24.8519 10.8927C24.8313 10.7143 24.7449 10.5499 24.6096 10.4316C24.416 10.2987 24.1857 10.2296 23.9509 10.234C23.3134 10.2446 22.3295 10.5868 17.6099 12.5503Z" fill="black"/>
</svg>
