<svg width="16" height="16" viewBox="0 0 16 16" fill="none" xmlns="http://www.w3.org/2000/svg">
<path d="M3.44362e-08 5C-0.000135734 6.1573 0.401196 7.27882 1.13555 8.17329C1.86991 9.06776 2.89182 9.67979 4.027 9.905C4.09238 9.18866 4.27621 8.48814 4.571 7.832C3.695 7.536 3.132 6.864 3 5.91H2.5V5.484H2.966V5.05C2.96533 5.00333 2.96667 4.95833 2.97 4.915H2.5V4.488H3.011C3.236 3.24 4.213 2.5 5.681 2.5C5.997 2.5 6.271 2.531 6.5 2.585V3.318C6.23248 3.25886 5.95894 3.23134 5.685 3.236C4.766 3.236 4.147 3.702 3.951 4.488H5.868V4.915H3.888C3.88533 4.96166 3.88433 5.01066 3.885 5.062V5.484H5.868V5.911H3.93C4.048 6.513 4.398 6.941 4.935 7.14C5.46154 6.26796 6.18567 5.53188 7.04897 4.99114C7.91228 4.4504 8.89059 4.12014 9.905 4.027C9.65975 2.81251 8.97248 1.73226 7.97633 0.99551C6.98017 0.258757 5.74603 -0.0820656 4.51296 0.0390627C3.27989 0.160191 2.13566 0.734648 1.30191 1.65116C0.468163 2.56767 0.00423701 3.761 3.44362e-08 5ZM16 10.5C16 11.9587 15.4205 13.3576 14.3891 14.3891C13.3576 15.4205 11.9587 16 10.5 16C9.04131 16 7.64236 15.4205 6.61091 14.3891C5.57946 13.3576 5 11.9587 5 10.5C5 9.04131 5.57946 7.64236 6.61091 6.61091C7.64236 5.57946 9.04131 5 10.5 5C11.9587 5 13.3576 5.57946 14.3891 6.61091C15.4205 7.64236 16 9.04131 16 10.5ZM8.25 11.822C8.319 12.657 8.996 13.307 10.214 13.384V14H10.754V13.38C12.013 13.294 12.75 12.64 12.75 11.69C12.75 10.825 12.187 10.38 11.18 10.15L10.754 10.05V8.374C11.294 8.434 11.638 8.721 11.72 9.119H12.668C12.598 8.315 11.889 7.686 10.754 7.617V7H10.214V7.629C9.138 7.732 8.406 8.361 8.406 9.251C8.406 10.038 8.95 10.539 9.856 10.744L10.214 10.829V12.609C9.66 12.529 9.294 12.233 9.211 11.822H8.25ZM10.21 9.927C9.678 9.807 9.39 9.563 9.39 9.195C9.39 8.785 9.701 8.476 10.214 8.386V9.926H10.209L10.21 9.927ZM10.832 10.971C11.477 11.116 11.775 11.351 11.775 11.767C11.775 12.241 11.405 12.567 10.755 12.627V10.953L10.832 10.971Z" fill="white"/>
</svg>
