<svg width="30" height="30" viewBox="0 0 30 30" fill="none" xmlns="http://www.w3.org/2000/svg">
<path d="M22.5 0H7.5C6.50544 0 5.55161 0.395088 4.84835 1.09835C4.14509 1.80161 3.75 2.75544 3.75 3.75V26.25C3.75 27.2446 4.14509 28.1984 4.84835 28.9016C5.55161 29.6049 6.50544 30 7.5 30H22.5C23.4946 30 24.4484 29.6049 25.1516 28.9016C25.8549 28.1984 26.25 27.2446 26.25 26.25V3.75C26.25 2.75544 25.8549 1.80161 25.1516 1.09835C24.4484 0.395088 23.4946 0 22.5 0ZM20.625 13.125C20.625 14.6168 20.0324 16.0476 18.9775 17.1025C17.9226 18.1574 16.4918 18.75 15 18.75C13.5082 18.75 12.0774 18.1574 11.0225 17.1025C9.96763 16.0476 9.375 14.6168 9.375 13.125C9.375 11.6332 9.96763 10.2024 11.0225 9.14752C12.0774 8.09263 13.5082 7.5 15 7.5C16.4918 7.5 17.9226 8.09263 18.9775 9.14752C20.0324 10.2024 20.625 11.6332 20.625 13.125ZM15 20.625C19.9181 20.625 22.7738 22.1737 24.375 23.9156V26.25C24.375 26.7473 24.1775 27.2242 23.8258 27.5758C23.4742 27.9275 22.9973 28.125 22.5 28.125H7.5C7.00272 28.125 6.52581 27.9275 6.17417 27.5758C5.82254 27.2242 5.625 26.7473 5.625 26.25V23.9156C7.22625 22.1719 10.0819 20.625 15 20.625Z" fill="black"/>
</svg>
