<svg width="34" height="34" viewBox="0 0 34 34" fill="none" xmlns="http://www.w3.org/2000/svg">
<path d="M29.0328 4.94285C27.4673 3.36928 25.6027 2.12181 23.5477 1.27319C21.4928 0.424567 19.2887 -0.00820422 17.064 0.000117778C7.74221 0.000117778 0.145153 7.56084 0.136615 16.8428C0.136615 19.8157 0.91788 22.7078 2.39289 25.2684L0 34L8.97388 31.6583C11.4553 33.006 14.2373 33.7111 17.064 33.7089H17.0726C26.3965 33.7089 33.9915 26.1482 34 16.8577C34.0019 14.6436 33.5638 12.451 32.7109 10.4061C31.8581 8.36122 30.6094 6.5045 29.0328 4.94285ZM17.064 30.8571C14.5434 30.8552 12.0695 30.18 9.9003 28.9021L9.38799 28.5961L4.06429 29.9859L5.48594 24.8158L5.15294 24.2824C3.74369 22.0519 2.99837 19.4694 3.00339 16.8343C3.00339 9.12909 9.31542 2.84336 17.0726 2.84336C18.9206 2.84006 20.751 3.20094 22.4582 3.9052C24.1655 4.60946 25.7158 5.64316 27.0198 6.94672C28.3281 8.2454 29.3653 9.78899 30.0717 11.4885C30.778 13.1881 31.1395 15.0099 31.1354 16.8492C31.1268 24.582 24.8148 30.8571 17.064 30.8571ZM24.7806 20.3724C24.3601 20.162 22.2831 19.1442 21.8925 18.9997C21.504 18.8616 21.2201 18.7893 20.9426 19.2101C20.6587 19.6287 19.8476 20.5828 19.6042 20.8569C19.3609 21.1395 19.109 21.1714 18.6863 20.9632C18.2658 20.7507 16.9018 20.3087 15.288 18.8701C14.0286 17.7544 13.1855 16.3732 12.9336 15.9546C12.6902 15.5338 12.9101 15.3086 13.1214 15.0982C13.3071 14.9112 13.5419 14.6052 13.7533 14.3629C13.9667 14.1207 14.0372 13.9422 14.1759 13.6617C14.3147 13.3769 14.2485 13.1347 14.1439 12.9243C14.0372 12.7139 13.194 10.6378 12.8375 9.80058C12.496 8.97396 12.148 9.08871 11.8876 9.07809C11.6443 9.06321 11.3604 9.06321 11.0765 9.06321C10.8621 9.06864 10.6512 9.11806 10.4569 9.20838C10.2626 9.29869 10.0891 9.42796 9.94726 9.58808C9.55876 10.0088 8.47225 11.0267 8.47225 13.1028C8.47225 15.1789 9.98782 17.1743 10.2013 17.4569C10.4105 17.7396 13.1769 21.9874 17.4226 23.8149C18.4259 24.2505 19.2157 24.5077 19.8326 24.7032C20.8466 25.0262 21.7623 24.9773 22.4923 24.8732C23.3035 24.7499 24.992 23.8532 25.3484 22.8693C25.6985 21.8833 25.6985 21.0418 25.5918 20.8654C25.4872 20.6869 25.2033 20.5828 24.7806 20.3724Z" fill="black"/>
</svg>
