<svg width="29" height="22" viewBox="0 0 29 22" fill="none" xmlns="http://www.w3.org/2000/svg">
<path fill-rule="evenodd" clip-rule="evenodd" d="M0 1.30301C0 1.04583 0.108902 0.799184 0.30275 0.617331C0.496598 0.435477 0.759512 0.333313 1.03365 0.333313H27.9087C28.1828 0.333313 28.4457 0.435477 28.6396 0.617331C28.8334 0.799184 28.9423 1.04583 28.9423 1.30301C28.9423 1.56019 28.8334 1.80684 28.6396 1.98869C28.4457 2.17054 28.1828 2.27271 27.9087 2.27271H1.03365C0.759512 2.27271 0.496598 2.17054 0.30275 1.98869C0.108902 1.80684 0 1.56019 0 1.30301ZM14.4712 6.15149C14.7453 6.15149 15.0082 6.25366 15.2021 6.43551C15.3959 6.61737 15.5048 6.86401 15.5048 7.12119V18.3561L19.9412 14.1922C20.1353 14.0101 20.3986 13.9078 20.6731 13.9078C20.9476 13.9078 21.2108 14.0101 21.4049 14.1922C21.599 14.3743 21.708 14.6213 21.708 14.8788C21.708 15.1363 21.599 15.3832 21.4049 15.5653L15.203 21.3835C15.107 21.4738 14.9929 21.5454 14.8673 21.5943C14.7417 21.6432 14.6071 21.6684 14.4712 21.6684C14.3352 21.6684 14.2006 21.6432 14.075 21.5943C13.9494 21.5454 13.8353 21.4738 13.7393 21.3835L7.5374 15.5653C7.34331 15.3832 7.23427 15.1363 7.23427 14.8788C7.23427 14.6213 7.34331 14.3743 7.5374 14.1922C7.7315 14.0101 7.99474 13.9078 8.26923 13.9078C8.54372 13.9078 8.80696 14.0101 9.00106 14.1922L13.4375 18.3561V7.12119C13.4375 6.86401 13.5464 6.61737 13.7403 6.43551C13.9341 6.25366 14.197 6.15149 14.4712 6.15149Z" fill="black"/>
</svg>
