<svg width="30" height="30" viewBox="0 0 30 30" fill="none" xmlns="http://www.w3.org/2000/svg">
<g clip-path="url(#clip0_4_28)">
<path fill-rule="evenodd" clip-rule="evenodd" d="M3.5344 0.958095C3.86248 0.630512 4.25643 0.376392 4.69015 0.212576C5.12386 0.0487609 5.58744 -0.0210097 6.05016 0.00788816C6.51289 0.036786 6.96418 0.163693 7.37415 0.380198C7.78411 0.596703 8.14338 0.897863 8.42815 1.26372L11.7938 5.58747C12.4107 6.3806 12.6282 7.41372 12.3844 8.38872L11.3588 12.495C11.3061 12.7077 11.3092 12.9304 11.3676 13.1415C11.4261 13.3527 11.538 13.5453 11.6925 13.7006L16.2994 18.3075C16.4549 18.4623 16.6478 18.5744 16.8593 18.6329C17.0709 18.6913 17.2939 18.6942 17.5069 18.6412L21.6113 17.6156C22.0925 17.496 22.5945 17.487 23.0797 17.5893C23.5649 17.6916 24.0206 17.9025 24.4125 18.2062L28.7363 21.57C30.2907 22.7793 30.4332 25.0762 29.0419 26.4656L27.1032 28.4043C25.7157 29.7918 23.6419 30.4012 21.7088 29.7206C16.76 27.9817 12.2673 25.1489 8.56503 21.4331C4.84948 17.7314 2.01669 13.2393 0.277528 8.29122C-0.401221 6.35997 0.208154 4.28435 1.59565 2.89685L3.5344 0.958095Z" fill="black"/>
</g>
<defs>
<clipPath id="clip0_4_28">
<rect width="30" height="30" fill="white"/>
</clipPath>
</defs>
</svg>
