<svg width="29" height="22" fill="none" xmlns="http://www.w3.org/2000/svg"><path fill-rule="evenodd" clip-rule="evenodd" d="M0 1.303A.94.94 0 0 1 .303.617a1.07 1.07 0 0 1 .73-.284H27.91c.274 0 .537.102.73.284a.94.94 0 0 1 .303.686.94.94 0 0 1-.302.686 1.07 1.07 0 0 1-.731.284H1.034a1.07 1.07 0 0 1-.731-.284A.94.94 0 0 1 0 1.303Zm14.471 4.848c.274 0 .537.103.731.285a.94.94 0 0 1 .303.685v11.235l4.436-4.164a1.07 1.07 0 0 1 .732-.284c.275 0 .538.102.732.284.194.182.303.43.303.687a.941.941 0 0 1-.303.686l-6.202 5.819a1.04 1.04 0 0 1-.336.21 1.093 1.093 0 0 1-1.128-.21l-6.202-5.819a.941.941 0 0 1-.303-.686c0-.258.11-.505.303-.687a1.07 1.07 0 0 1 .732-.284c.275 0 .538.102.732.284l4.437 4.164V7.121a.94.94 0 0 1 .302-.685 1.07 1.07 0 0 1 .731-.285Z" fill="#000"/></svg>